<?xml version="1.0" encoding="utf-8"?>
<!-- Generator: Adobe Illustrator 16.0.0, SVG Export Plug-In . SVG Version: 6.00 Build 0)  -->
<!DOCTYPE svg PUBLIC "-//W3C//DTD SVG 1.0//EN" "http://www.w3.org/TR/2001/REC-SVG-20010904/DTD/svg10.dtd">
<svg version="1.0" id="Layer_1" xmlns="http://www.w3.org/2000/svg" xmlns:xlink="http://www.w3.org/1999/xlink" x="0px" y="0px"
	 width="33.408px" height="34.255px" viewBox="0 0 33.408 34.255" enable-background="new 0 0 33.408 34.255" xml:space="preserve">
<path fill="#EF7056" d="M27.796,25.235c0,2.36-0.936,4.455-2.806,6.279c-1.871,1.827-4.337,2.741-7.396,2.741
	s-5.449-0.92-7.171-2.763c-1.842-1.96-2.763-4.305-2.763-7.038c0-0.326,0.015-0.741,0.045-1.246
	c-1.514,1.276-2.926,3.252-4.231,5.924C1.782,28.36,0.624,27.38,0,26.192c2.316-3.532,5.256-5.984,8.82-7.349
	c1.483-3.623,4.143-7.321,7.973-11.093c-1.9-0.771-3.838-1.158-5.813-1.158c-1.975,0-3.808,0.609-5.501,1.826
	C4.499,7.944,3.935,7.559,3.786,7.26c0-1.87,0.46-3.548,1.381-5.034C6.087,0.743,7.454,0,9.265,0c1.841,0,4.736,1.024,8.687,3.074
	c1.455,0.743,2.405,1.173,2.851,1.292c1.276-0.92,2.665-1.677,4.165-2.272c1.5-0.594,2.829-0.89,3.987-0.89s2.188,0.319,3.095,0.957
	c0.906,0.64,1.359,1.627,1.359,2.963s-0.482,2.502-1.448,3.496c-0.965,0.997-2.309,1.493-4.03,1.493
	c-0.892,0-2.361-0.268-4.41-0.801c-2.139,2.315-3.92,5.048-5.346,8.196c2.406,0.059,4.611,0.771,6.615,2.138
	C26.793,21.011,27.796,22.874,27.796,25.235z M18.174,20.624c-0.298,0-0.713,0.03-1.247,0.09c-0.417,1.484-0.624,2.939-0.624,4.366
	c0,1.425,0.334,2.62,1.003,3.585c0.668,0.965,1.506,1.447,2.517,1.447c1.009,0,1.841-0.519,2.494-1.559
	c0.653-1.039,0.98-2.212,0.98-3.52c0-1.306-0.512-2.368-1.537-3.185C20.735,21.033,19.539,20.624,18.174,20.624z M30.245,5.568
	c0-0.654-0.355-0.98-1.068-0.98c-1.069,0-2.198,0.684-3.386,2.048c0.506,0.357,1.188,0.535,2.049,0.535
	C29.444,7.171,30.245,6.636,30.245,5.568z"/>
</svg>
