<?xml version="1.0" standalone="no"?>
<!DOCTYPE svg PUBLIC "-//W3C//DTD SVG 20010904//EN"
 "http://www.w3.org/TR/2001/REC-SVG-20010904/DTD/svg10.dtd">
<svg version="1.0" xmlns="http://www.w3.org/2000/svg"
 width="544.000000pt" height="544.000000pt" viewBox="0 0 544.000000 544.000000"
 preserveAspectRatio="xMidYMid meet">
<metadata>
Created by potrace 1.11, written by Peter Selinger 2001-2013
</metadata>
<g transform="translate(0.000000,544.000000) scale(0.100000,-0.100000)"
fill="#000000" stroke="none">
<path d="M1410 5433 c-165 -27 -313 -104 -421 -219 -49 -53 -109 -137 -109
-152 0 -6 -4 -12 -8 -14 -25 -9 -141 -298 -157 -387 -3 -19 -8 -37 -10 -40 -5
-9 -16 -87 -21 -141 -2 -25 -4 -45 -5 -45 0 0 -3 -29 -5 -65 -5 -97 7 -118
104 -177 61 -37 151 -83 162 -83 6 0 31 13 55 30 151 104 383 197 579 231 103
19 339 27 431 15 17 -2 57 -7 91 -10 33 -4 73 -9 90 -12 16 -3 49 -9 74 -14
107 -20 154 -32 280 -70 52 -17 97 -29 100 -28 3 2 16 -5 30 -15 13 -9 32 -17
42 -17 10 0 18 -4 18 -9 0 -5 -35 -45 -77 -89 -112 -115 -219 -229 -288 -307
-33 -37 -65 -73 -71 -79 -19 -20 -198 -242 -236 -292 -84 -112 -109 -147 -185
-260 -75 -112 -151 -232 -166 -264 -4 -8 -23 -42 -42 -75 -47 -80 -148 -287
-148 -302 0 -7 -4 -13 -8 -13 -6 0 -11 -11 -28 -65 -4 -11 -11 -20 -16 -21 -6
0 -36 -12 -69 -27 -32 -15 -61 -27 -63 -27 -12 0 -231 -115 -287 -150 -35 -22
-68 -40 -75 -40 -6 0 -11 -4 -11 -8 0 -4 -15 -16 -33 -27 -17 -10 -36 -24 -40
-32 -4 -7 -13 -13 -18 -13 -9 0 -72 -43 -89 -60 -3 -3 -38 -32 -79 -65 -197
-159 -427 -416 -600 -668 l-32 -47 44 -68 c89 -133 239 -260 412 -350 100 -51
97 -52 135 25 117 241 318 544 470 707 62 66 143 144 152 145 4 1 10 -88 12
-197 4 -214 7 -244 37 -372 68 -292 207 -541 423 -756 182 -181 372 -289 626
-355 80 -21 87 -23 165 -34 28 -4 73 -11 100 -15 52 -8 410 -5 480 4 55 7 123
19 175 31 14 3 38 8 54 10 100 19 364 131 460 197 327 223 581 575 641 887 2
13 6 30 9 39 19 63 27 344 12 427 -4 22 -9 54 -12 70 -8 46 -63 203 -85 239
-10 17 -23 40 -28 51 -31 71 -212 271 -280 311 -17 10 -31 22 -31 26 0 4 -7 8
-15 8 -8 0 -15 5 -15 10 0 6 -7 10 -15 10 -8 0 -15 5 -15 10 0 6 -5 10 -11 10
-6 0 -29 13 -52 28 -63 43 -261 138 -358 171 -103 36 -267 78 -329 85 -25 3
-56 7 -70 10 -14 3 -63 7 -109 10 -46 3 -85 7 -87 9 -6 5 134 284 206 412 74
131 191 319 202 323 4 2 8 8 8 12 0 5 21 39 48 75 26 37 54 77 62 89 44 65
125 165 230 286 92 105 88 102 110 95 11 -3 32 -8 47 -11 16 -3 37 -8 48 -11
11 -4 27 -8 35 -9 8 -2 35 -8 60 -14 112 -26 274 -57 345 -66 83 -10 233 -12
275 -3 19 4 58 10 87 13 54 6 82 13 123 31 3 2 16 6 29 10 104 34 246 138 322
238 24 31 49 63 55 70 31 36 93 186 109 263 23 116 14 287 -21 391 -29 86
-100 180 -178 238 -84 62 -231 123 -338 141 -58 10 -249 10 -323 1 -240 -31
-631 -179 -890 -336 -37 -23 -71 -41 -75 -41 -5 0 -10 -3 -12 -7 -1 -5 -36
-30 -77 -57 -74 -48 -74 -48 -115 -35 -61 19 -667 310 -686 329 -3 3 -10 6
-17 7 -6 1 -44 19 -85 38 -40 20 -93 45 -118 55 -25 10 -88 36 -141 57 -84 35
-287 108 -329 119 -8 2 -49 13 -90 24 -41 11 -91 23 -110 26 -19 3 -42 8 -50
11 -18 7 -264 11 -300 6z m3389 -740 c53 -28 73 -62 75 -129 2 -81 -12 -120
-62 -170 -59 -60 -140 -85 -284 -89 -59 -1 -129 2 -155 6 -26 5 -58 11 -69 13
-12 2 -47 16 -78 31 -66 31 -68 24 35 125 73 71 93 88 159 131 78 51 76 50
148 74 85 28 185 32 231 8z m-1719 -2537 c59 -8 124 -21 160 -31 49 -14 176
-77 234 -117 52 -35 144 -120 183 -170 47 -62 97 -185 108 -269 6 -44 6 -194
1 -239 -13 -102 -62 -274 -87 -306 -5 -6 -6 -14 -2 -17 3 -4 1 -7 -5 -7 -7 0
-12 -6 -12 -13 0 -25 -101 -166 -152 -212 -181 -163 -430 -155 -603 19 -58 59
-88 94 -96 112 -3 5 -14 25 -26 44 -12 19 -23 40 -23 45 -1 6 -7 19 -13 30
-18 32 -36 85 -53 155 -26 103 -28 126 -28 285 0 190 9 286 48 497 10 53 38
166 45 176 4 6 32 14 62 18 29 3 55 7 56 7 4 5 164 -1 203 -7z"/>
</g>
</svg>
